<svg
  width="678"
  height="678"
  viewBox="0 0 678 678"
  fill="none"
  xmlns="http://www.w3.org/2000/svg"
>
  <style>
    .themed-path {
      fill: #F8F8FF;
    }

    @media (prefers-color-scheme: light) {
      .themed-path {
        fill: #121212;
      }
    }
  </style>
  <path class="themed-path" d="M121.22 484.82C121.3 484.733 121.359 484.628 121.392 484.513C121.424 484.399 121.43 484.279 121.407 484.162C121.385 484.045 121.336 483.936 121.263 483.841C121.191 483.747 121.097 483.671 120.99 483.62C116.53 481.473 111.507 478.97 105.92 476.11C96.88 471.48 90.12 468.1 85.98 460.55C83.47 455.97 82.75 452.21 83.68 446.98C85.3 437.95 90.93 431.76 98.93 427.19C106.05 423.123 113.55 419.193 121.43 415.4C121.542 415.345 121.638 415.261 121.706 415.156C121.774 415.052 121.812 414.931 121.816 414.807C121.821 414.683 121.79 414.561 121.729 414.454C121.668 414.347 121.578 414.259 121.47 414.2C114.07 410.15 105.41 406.17 97.51 401.53C91.2967 397.883 86.9833 392.973 84.57 386.8C83.2167 383.327 83.1767 379.28 84.45 374.66C86.78 366.24 93.51 359.77 101.22 355.73C126.4 342.523 151.147 329.72 175.46 317.32C175.684 317.209 175.865 317.026 175.976 316.8C176.086 316.574 176.119 316.318 176.07 316.07C175.59 313.67 174.95 311.31 174.91 308.63C174.743 299.797 174.543 292.307 174.31 286.16C174.143 281.9 172.297 277.327 168.77 272.44C166.65 269.507 163.163 267.083 158.31 265.17C156.003 264.263 151.737 263.793 145.51 263.76C140.643 263.733 136.287 263.517 132.44 263.11C132.112 263.077 131.798 262.96 131.53 262.77C126.85 259.44 125.8 256.52 125.79 250.48C125.783 242.38 125.783 225.637 125.79 200.25C125.79 194.21 125.03 189.45 127.39 185.9C129.563 182.64 133.017 181.02 137.75 181.04C143.477 181.06 147.763 181.06 150.61 181.04C156.137 180.993 160.353 180.46 163.26 179.44C171.66 176.5 177.29 170.4 180.36 161.96C184.187 151.46 182.69 141.513 175.87 132.12C173.45 128.78 171.09 126.92 168.45 123.99C168.123 123.623 166.947 122.503 164.92 120.63C160.6 116.61 158.59 112.34 160.13 106.44C160.45 105.193 161.813 103.2 164.22 100.46C165.887 98.5601 176.173 88.4334 195.08 70.0801C199.86 65.4467 202.61 62.8701 203.33 62.3501C208.56 58.6101 215.66 57.3101 221 61.5101C222.327 62.5567 226.013 66.0301 232.06 71.9301C238.11 77.8301 247.1 82.4601 255.72 81.7901C269.06 80.7401 280.13 71.2201 283.51 58.2301C285.8 49.4101 285.57 40.1801 286.16 31.3801C286.347 28.5534 288.09 26.4767 291.39 25.1501C291.628 25.0576 291.886 25.0134 292.15 25.0201C292.803 25.0401 313.763 25.0401 355.03 25.0201C358.23 25.0201 360.413 26.5834 361.58 29.7101C362.46 32.0601 362.92 36.6101 362.9 39.5001C362.81 52.2501 364 63.3101 372.93 72.5601C385.63 85.7201 404.45 83.7201 417.16 72.1401C421.45 68.2301 425.52 63.5801 429.82 61.2301C436.993 57.3101 443.873 58.3334 450.46 64.3001C458.127 71.2401 470.037 82.8267 486.19 99.0601C487.017 99.8867 488.357 101.543 490.21 104.03C493.96 109.05 491.64 114.39 487.8 118.56C484.24 122.43 477.98 127.34 474.54 132.23C467.98 141.577 466.657 151.48 470.57 161.94C473.74 170.42 479.56 176.6 487.96 179.47C491.247 180.59 495.557 181.1 500.89 181C502.85 180.967 507.283 180.987 514.19 181.06C514.661 181.06 515.129 181.131 515.58 181.27C521.513 183.103 524.51 187.027 524.57 193.04C524.817 217.28 524.853 237.18 524.68 252.74C524.627 257.3 522.56 260.64 518.48 262.76C518.202 262.906 517.901 263 517.59 263.04C513.39 263.64 508.537 263.903 503.03 263.83C498.597 263.77 495.273 264.127 493.06 264.9C480.61 269.24 475.95 279.08 475.76 291.76C475.593 302.367 475.38 310.277 475.12 315.49C475.108 315.694 475.141 315.897 475.217 316.086C475.293 316.274 475.41 316.443 475.56 316.58C476.753 317.707 478.213 318.533 479.94 319.06C480.113 319.113 480.28 319.18 480.44 319.26C490.767 324.473 510.977 334.53 541.07 349.43C546.843 352.283 551.81 355.073 555.97 357.8C558.37 359.373 560.743 361.66 563.09 364.66C568.82 371.99 570.35 381.92 565.78 390.25C561.98 397.18 555.07 401.73 547.59 405.49C541.057 408.77 535.213 411.75 530.06 414.43C529.966 414.479 529.886 414.553 529.831 414.644C529.776 414.735 529.747 414.839 529.747 414.945C529.747 415.051 529.776 415.156 529.831 415.246C529.886 415.337 529.966 415.411 530.06 415.46C536.607 418.813 543.957 422.61 552.11 426.85C554.64 428.17 557.71 430.27 559.5 431.74C567.91 438.61 570.94 449.45 565.76 459.56C563.16 464.63 557.37 469.13 552.78 471.54C550.713 472.633 542.88 476.653 529.28 483.6C529.199 483.64 529.131 483.7 529.08 483.775C529.03 483.849 529 483.936 528.992 484.025C528.985 484.115 529.002 484.205 529.04 484.286C529.078 484.368 529.137 484.438 529.21 484.49C529.923 484.997 530.993 485.627 532.42 486.38C537.847 489.24 543.387 492.113 549.04 495C556.71 498.91 563.48 503.9 566.87 512.37C572.79 527.19 562.18 540.41 549.52 546.74C504.62 569.213 446.717 597.987 375.81 633.06C366.023 637.9 357.977 641.76 351.67 644.64C343.08 648.55 332.89 651.18 323.18 650.49C317 650.05 311.517 648.903 306.73 647.05C300.623 644.69 294.33 641.897 287.85 638.67C247.25 618.477 201.397 595.817 150.29 570.69C132.52 561.96 118.78 555.64 102.07 546.94C89.75 540.52 81.15 528.82 84.31 514.52C85.0033 511.353 86.8267 507.94 89.78 504.28C90.4733 503.42 92.4667 501.677 95.76 499.05C97.18 497.917 99.4367 496.523 102.53 494.87C111.537 490.043 116.063 487.613 116.11 487.58C117.54 486.58 119.93 486.22 121.22 484.82ZM278.25 160.69C274.83 161.64 271.65 162.7 268.99 162.79C261.137 163.07 247.973 163.123 229.5 162.95C218.69 162.84 207.65 165.32 202.2 176.14C200.613 179.3 199.647 181.77 199.3 183.55C198.03 190.18 198.09 196.71 198.05 203.65C198.01 210.437 198.04 242.383 198.14 299.49C198.16 311.91 201.18 324.6 207.59 334.43C214.703 345.33 224.477 352.38 236.91 355.58C241.13 356.667 248.233 357.2 258.22 357.18C308.487 357.08 354.33 357.083 395.75 357.19C402.637 357.21 408.257 356.663 412.61 355.55C432.17 350.543 444.637 338.357 450.01 318.99C451.523 313.537 452.31 308.113 452.37 302.72C452.637 278.167 452.733 245.687 452.66 205.28C452.633 193.38 452.113 185.43 451.1 181.43C448.993 173.143 445.59 165.95 440.89 159.85C434.177 151.13 426.387 144.43 417.52 139.75C414.067 137.923 411.207 136.78 408.94 136.32C404.16 135.34 397.94 134.81 391.62 134.8C380.82 134.793 361.217 134.803 332.81 134.83C326.323 134.837 321.79 135.123 319.21 135.69C315.057 136.603 310.897 138.363 306.73 140.97C303.77 142.817 302.02 143.983 301.48 144.47C295.52 149.823 291.007 153.637 287.94 155.91C284.973 158.117 281.743 159.71 278.25 160.69ZM467.95 339.63C465.883 342.883 464.8 344.583 464.7 344.73C454.22 361.003 439.487 371.757 420.5 376.99C415.033 378.497 409.7 379.397 404.5 379.69C399.673 379.963 394.007 380.073 387.5 380.02C369.413 379.873 323.497 379.867 249.75 380C244.857 380.013 240.113 379.527 235.52 378.54C212.4 373.56 195.227 360.743 184 340.09C183.916 339.938 183.778 339.824 183.614 339.772C183.45 339.719 183.273 339.733 183.12 339.81C155.4 353.763 133.553 364.86 117.58 373.1C115.413 374.22 113.367 375.487 111.44 376.9C110.964 377.247 110.605 377.73 110.41 378.285C110.216 378.841 110.195 379.442 110.35 380.01C110.497 380.537 111.067 381.273 112.06 382.22C112.507 382.647 113.973 383.513 116.46 384.82C124.033 388.78 133.21 393.337 143.99 398.49C199.23 424.93 249.65 449.423 295.25 471.97C303.17 475.883 308.207 478.207 310.36 478.94C320.58 482.39 330.59 483.26 340.05 479.52C344.52 477.75 351.04 474.78 354.35 473.13C400.63 450.097 445.807 427.783 489.88 406.19C506.39 398.1 521.01 390.32 537.49 382.51C538.903 381.837 539.963 380.943 540.67 379.83C540.983 379.333 541.102 378.739 541.004 378.161C540.906 377.583 540.599 377.063 540.14 376.7C537.3 374.45 534.27 372.64 530.95 370.92C525.143 367.907 504.38 357.41 468.66 339.43C468.539 339.37 468.4 339.358 468.269 339.394C468.139 339.431 468.025 339.515 467.95 339.63ZM150.13 427.4C139.357 433.153 127.903 439.1 115.77 445.24C114.963 445.647 113.12 446.787 110.24 448.66C110.111 448.743 110.004 448.856 109.929 448.988C109.854 449.121 109.813 449.269 109.81 449.42C109.757 451.347 110.547 452.703 112.18 453.49C117.573 456.077 122.317 458.52 126.41 460.82C126.93 461.113 128.71 462.02 131.75 463.54C213.79 504.647 271.427 533.25 304.66 549.35C308.627 551.277 313.233 552.79 318.48 553.89C322.627 554.757 326.493 554.95 330.08 554.47C338.31 553.37 343.09 550.56 352.8 545.78C393.653 525.627 445.063 500.027 507.03 468.98C526.017 459.467 536.627 454.087 538.86 452.84C540.173 452.113 541.08 451.403 541.58 450.71C541.816 450.385 541.914 449.982 541.854 449.586C541.794 449.191 541.581 448.837 541.26 448.6C539.313 447.167 537.377 445.94 535.45 444.92C531.53 442.847 520.673 437.117 502.88 427.73C501.82 427.17 500.65 427.21 499.37 427.85C460.797 447.117 416.153 469.137 365.44 493.91C355.427 498.797 348.947 501.75 346 502.77C330.707 508.083 315.623 507.243 300.75 500.25C287.523 494.03 237.597 469.743 150.97 427.39C150.836 427.325 150.69 427.292 150.544 427.294C150.398 427.295 150.256 427.332 150.13 427.4ZM148.56 498.3C148.413 498.17 148.231 498.088 148.036 498.063C147.842 498.038 147.645 498.072 147.47 498.16C136.463 503.727 125.553 509.343 114.74 515.01C113.2 515.817 111.86 516.953 110.72 518.42C108.84 520.83 109.99 522.65 112.18 524.1C114.64 525.73 117.98 527.6 120.8 529C189.12 563.107 236.46 586.74 262.82 599.9C281.307 609.133 294.433 615.63 302.2 619.39C306.247 621.35 309.54 622.747 312.08 623.58C315.413 624.68 318.89 625.443 322.51 625.87C333.44 627.17 343.5 623.11 352.87 618.36C404.383 592.233 461.693 563.463 524.8 532.05C531.2 528.863 535.703 526.543 538.31 525.09C539.583 524.377 540.73 523.263 541.75 521.75C541.846 521.608 541.906 521.445 541.925 521.276C541.944 521.107 541.922 520.937 541.86 520.78C541.087 518.74 540.023 517.333 538.67 516.56C530.463 511.873 518.77 505.76 503.59 498.22C503.394 498.124 503.178 498.074 502.96 498.074C502.742 498.074 502.526 498.124 502.33 498.22C464.93 516.953 432.74 532.95 405.76 546.21C377.06 560.317 360.527 568.427 356.16 570.54C350.653 573.213 346.34 575.03 343.22 575.99C337.593 577.71 333.013 578.657 329.48 578.83C320.08 579.283 310.61 577.443 301.07 573.31C294.883 570.63 291.47 569.133 290.83 568.82C211.997 530.193 165.14 507.103 150.26 499.55C149.74 499.283 149.173 498.867 148.56 498.3Z"/>
  <path class="themed-path" d="M415.268 224.128C415.887 209.937 405.945 197.977 393.062 197.414C380.178 196.852 369.232 207.9 368.612 222.091C367.993 236.283 377.935 248.243 390.818 248.806C403.702 249.368 414.648 238.32 415.268 224.128Z"/>
  <path class="themed-path" d="M295.68 223.139C295.655 208.896 285.149 197.367 272.215 197.39C259.28 197.413 248.815 208.978 248.84 223.221C248.865 237.464 259.371 248.993 272.305 248.97C285.239 248.947 295.705 237.383 295.68 223.139Z"/>
  <path class="themed-path" d="M293.82 275.33C295.03 275.6 297.63 277.55 298.89 278.64C308.517 286.993 320.007 291.323 333.36 291.63C336.26 291.7 338.59 291.13 341.84 290.8C349.44 290.02 356.83 287.073 364.01 281.96C367.757 279.287 370.213 277.387 371.38 276.26C371.675 275.978 372.036 275.772 372.43 275.66C375.697 274.747 378.363 274.943 380.43 276.25C386.99 280.42 386.12 288.51 382.12 294.14C376.28 302.38 367.34 307.82 358.01 311.23C355.063 312.303 351.157 313.28 346.29 314.16C341.763 314.973 337.76 315.413 334.28 315.48C325.06 315.647 315.99 314.11 307.07 310.87C300.45 308.463 294.7 304.973 289.82 300.4C284.6 295.51 276.98 285.56 283.4 278.62C286.267 275.52 289.74 274.423 293.82 275.33Z"/>
</svg>