<svg width="796" height="216" viewBox="0 0 796 216" fill="none" xmlns="http://www.w3.org/2000/svg">
<path d="M38.6188 154.456C38.6444 154.428 38.6632 154.395 38.6735 154.358C38.6839 154.322 38.6856 154.283 38.6785 154.246C38.6713 154.209 38.6556 154.174 38.6325 154.144C38.6094 154.114 38.5796 154.09 38.5455 154.074C37.1246 153.39 35.5242 152.592 33.7444 151.681C30.8644 150.206 28.7108 149.129 27.3919 146.724C26.5922 145.265 26.3628 144.067 26.6591 142.401C27.1752 139.524 28.9688 137.552 31.5175 136.096C33.7858 134.8 36.1752 133.548 38.6857 132.34C38.7214 132.322 38.7518 132.296 38.7735 132.262C38.7953 132.229 38.8075 132.19 38.8088 132.151C38.8101 132.111 38.8005 132.072 38.781 132.038C38.7615 132.004 38.733 131.976 38.6984 131.957C36.3409 130.667 33.5819 129.399 31.0651 127.921C29.0857 126.759 27.7115 125.195 26.9427 123.228C26.5115 122.122 26.4988 120.833 26.9044 119.361C27.6467 116.678 29.7908 114.617 32.2471 113.33C40.269 109.122 48.1529 105.043 55.8988 101.093C55.9702 101.058 56.0279 100.999 56.063 100.927C56.0982 100.855 56.1087 100.774 56.0931 100.695C55.9402 99.9302 55.7363 99.1783 55.7235 98.3245C55.6704 95.5104 55.6067 93.1242 55.5324 91.166C55.4793 89.8088 54.891 88.3518 53.7674 86.795C53.092 85.8605 51.9812 85.0884 50.435 84.4789C49.7002 84.19 48.3409 84.0403 46.3572 84.0297C44.8067 84.0212 43.4188 83.9521 42.1933 83.8226C42.0888 83.8121 41.9889 83.7748 41.9034 83.7143C40.4124 82.6534 40.0779 81.7231 40.0747 79.7989C40.0726 77.2183 40.0726 71.8842 40.0747 63.7964C40.0747 61.8722 39.8326 60.3557 40.5844 59.2247C41.2768 58.1861 42.377 57.67 43.885 57.6764C45.7094 57.6828 47.075 57.6828 47.9819 57.6764C49.7427 57.6615 51.086 57.4916 52.012 57.1667C54.6881 56.23 56.4818 54.2867 57.4598 51.5978C58.6789 48.2527 58.2021 45.0838 56.0294 42.0913C55.2584 41.0272 54.5065 40.4346 53.6655 39.5012C53.5614 39.3844 53.1865 39.0275 52.5409 38.4307C51.1646 37.15 50.5242 35.7897 51.0149 33.91C51.1168 33.5129 51.5512 32.8778 52.3179 32.0049C52.8488 31.3996 56.126 28.1734 62.1494 22.3263C63.6722 20.8502 64.5483 20.0293 64.7777 19.8637C66.4439 18.6721 68.7058 18.258 70.4071 19.596C70.8297 19.9295 72.0042 21.036 73.9306 22.9157C75.858 24.7953 78.7221 26.2704 81.4683 26.0569C85.7182 25.7224 89.245 22.6895 90.3218 18.5511C91.0513 15.7412 90.978 12.8006 91.166 9.9971C91.2255 9.09657 91.7809 8.43498 92.8322 8.01233C92.9079 7.98288 92.9902 7.9688 93.0743 7.97091C93.2825 7.97728 99.96 7.97728 113.107 7.97091C114.126 7.97091 114.822 8.46896 115.194 9.46507C115.474 10.2137 115.621 11.6633 115.614 12.584C115.585 16.646 115.965 20.1695 118.81 23.1164C122.856 27.309 128.851 26.6718 132.901 22.9826C134.267 21.7369 135.564 20.2555 136.934 19.5068C139.219 18.258 141.411 18.584 143.509 20.4849C145.952 22.6959 149.746 26.3872 154.892 31.5589C155.156 31.8222 155.583 32.35 156.173 33.1422C157.368 34.7415 156.629 36.4428 155.405 37.7713C154.271 39.0042 152.277 40.5684 151.181 42.1263C149.091 45.104 148.669 48.2591 149.916 51.5914C150.926 54.293 152.78 56.2619 155.456 57.1762C156.503 57.533 157.876 57.6955 159.576 57.6637C160.2 57.653 161.612 57.6594 163.813 57.6828C163.963 57.6828 164.112 57.7053 164.256 57.7497C166.146 58.3337 167.101 59.5837 167.12 61.4994C167.198 69.2219 167.21 75.5617 167.155 80.5189C167.138 81.9716 166.479 83.0357 165.179 83.7111C165.091 83.7574 164.995 83.7876 164.896 83.8003C163.558 83.9914 162.012 84.0753 160.257 84.052C158.845 84.0329 157.786 84.1465 157.081 84.3929C153.115 85.7755 151.63 88.9104 151.57 92.95C151.516 96.3291 151.448 98.8491 151.366 100.51C151.362 100.575 151.372 100.64 151.397 100.7C151.421 100.76 151.458 100.814 151.506 100.857C151.886 101.216 152.351 101.48 152.901 101.647C152.956 101.664 153.01 101.686 153.061 101.711C156.35 103.372 162.789 106.576 172.376 111.323C174.216 112.232 175.798 113.121 177.123 113.989C177.888 114.491 178.644 115.219 179.392 116.175C181.217 118.51 181.704 121.674 180.248 124.327C179.038 126.535 176.836 127.985 174.453 129.183C172.372 130.228 170.51 131.177 168.869 132.031C168.839 132.046 168.813 132.07 168.796 132.099C168.778 132.128 168.769 132.161 168.769 132.195C168.769 132.229 168.778 132.262 168.796 132.291C168.813 132.32 168.839 132.343 168.869 132.359C170.954 133.427 173.296 134.637 175.893 135.988C176.699 136.408 177.678 137.077 178.248 137.545C180.927 139.734 181.892 143.188 180.242 146.408C179.414 148.024 177.569 149.457 176.107 150.225C175.448 150.573 172.953 151.854 168.62 154.067C168.595 154.08 168.573 154.099 168.556 154.123C168.54 154.147 168.531 154.174 168.529 154.203C168.526 154.231 168.532 154.26 168.544 154.286C168.556 154.312 168.575 154.334 168.598 154.351C168.825 154.512 169.166 154.713 169.621 154.953C171.349 155.864 173.114 156.779 174.915 157.699C177.359 158.945 179.516 160.534 180.596 163.233C182.482 167.954 179.102 172.166 175.068 174.183C160.764 181.342 142.317 190.509 119.727 201.683C116.609 203.225 114.046 204.454 112.036 205.372C109.3 206.618 106.053 207.456 102.96 207.236C100.991 207.096 99.2442 206.73 97.7193 206.14C95.7738 205.388 93.7688 204.498 91.7044 203.47C78.7699 197.037 64.1618 189.818 47.88 181.813C42.2188 179.031 37.8414 177.018 32.5179 174.246C28.5929 172.201 25.8531 168.474 26.8598 163.918C27.0807 162.909 27.6616 161.822 28.6025 160.656C28.8234 160.382 29.4584 159.826 30.5076 158.989C30.96 158.628 31.6789 158.184 32.6644 157.658C35.5338 156.12 36.9759 155.346 36.9908 155.335C37.4464 155.017 38.2078 154.902 38.6188 154.456ZM88.646 51.1932C87.5565 51.4959 86.5434 51.8336 85.6959 51.8622C83.194 51.9514 79.0003 51.9684 73.115 51.9132C69.6711 51.8782 66.154 52.6683 64.4177 56.1153C63.9122 57.1221 63.6042 57.909 63.4938 58.476C63.0892 60.5883 63.1083 62.6686 63.0956 64.8796C63.0828 67.0417 63.0924 77.2194 63.1242 95.4127C63.1306 99.3695 64.0927 103.412 66.1349 106.544C68.4011 110.017 71.5147 112.263 75.4757 113.282C76.8202 113.628 79.0832 113.798 82.2648 113.792C98.2789 113.76 112.884 113.761 126.08 113.795C128.274 113.801 130.064 113.627 131.451 113.273C137.682 111.677 141.654 107.795 143.366 101.625C143.848 99.8877 144.099 98.1599 144.118 96.4417C144.203 88.6194 144.234 78.2718 144.21 65.3989C144.202 61.6077 144.036 59.075 143.713 57.8006C143.042 55.1606 141.958 52.869 140.461 50.9256C138.322 48.1476 135.84 46.013 133.015 44.5221C131.915 43.9401 131.004 43.5759 130.282 43.4293C128.759 43.1171 126.777 42.9483 124.764 42.9451C121.323 42.9429 115.078 42.9461 106.028 42.9546C103.961 42.9568 102.517 43.0481 101.695 43.2286C100.372 43.5196 99.0467 44.0803 97.7193 44.9107C96.7763 45.4991 96.2188 45.8707 96.0467 46.0258C94.148 47.7313 92.7101 48.9461 91.7331 49.6704C90.788 50.3734 89.7589 50.881 88.646 51.1932ZM149.081 108.201C148.423 109.237 148.078 109.779 148.046 109.825C144.707 115.01 140.013 118.436 133.965 120.103C132.223 120.583 130.524 120.87 128.867 120.963C127.33 121.05 125.524 121.085 123.451 121.068C117.689 121.022 103.061 121.019 79.5664 121.062C78.0074 121.066 76.4963 120.911 75.0329 120.597C67.6673 119.01 62.1961 114.927 58.6195 108.347C58.5928 108.299 58.5487 108.262 58.4964 108.246C58.4442 108.229 58.3878 108.233 58.3391 108.258C49.508 112.703 42.548 116.239 37.4591 118.864C36.7688 119.22 36.1168 119.624 35.503 120.074C35.3514 120.185 35.237 120.339 35.175 120.516C35.1129 120.693 35.1062 120.884 35.1558 121.065C35.2025 121.233 35.3841 121.468 35.7005 121.769C35.8428 121.905 36.3101 122.181 37.1023 122.597C39.515 123.859 42.4386 125.311 45.8729 126.953C63.4715 135.376 79.5345 143.179 94.0619 150.362C96.5851 151.609 98.1897 152.349 98.8757 152.583C102.132 153.682 105.321 153.959 108.335 152.767C109.759 152.203 111.836 151.257 112.89 150.732C127.634 143.394 142.027 136.285 156.068 129.406C161.328 126.828 165.985 124.35 171.236 121.862C171.686 121.647 172.024 121.362 172.249 121.008C172.349 120.849 172.387 120.66 172.355 120.476C172.324 120.292 172.226 120.126 172.08 120.011C171.175 119.294 170.21 118.717 169.152 118.169C167.302 117.209 160.687 113.865 149.308 108.137C149.269 108.118 149.225 108.114 149.183 108.126C149.141 108.137 149.105 108.164 149.081 108.201ZM47.829 136.163C44.3968 137.996 40.748 139.89 36.8825 141.846C36.6255 141.976 36.0382 142.339 35.1207 142.936C35.0796 142.962 35.0456 142.998 35.0217 143.041C34.9978 143.083 34.9848 143.13 34.9837 143.178C34.9667 143.792 35.2184 144.224 35.7388 144.475C37.457 145.299 38.9681 146.077 40.2722 146.81C40.4379 146.903 41.005 147.192 41.9735 147.676C68.1101 160.772 86.4722 169.885 97.0598 175.014C98.3235 175.628 99.7911 176.11 101.463 176.46C102.784 176.737 104.016 176.798 105.158 176.645C107.78 176.295 109.303 175.4 112.396 173.877C125.412 167.456 141.79 159.3 161.532 149.41C167.581 146.379 170.961 144.665 171.672 144.268C172.091 144.036 172.379 143.81 172.539 143.589C172.614 143.486 172.645 143.357 172.626 143.231C172.607 143.105 172.539 142.992 172.437 142.917C171.817 142.46 171.2 142.069 170.586 141.744C169.337 141.084 165.878 139.258 160.21 136.268C159.872 136.09 159.499 136.102 159.091 136.306C146.802 142.444 132.58 149.459 116.423 157.352C113.233 158.909 111.169 159.849 110.23 160.174C105.358 161.867 100.553 161.6 95.8142 159.372C91.6003 157.39 75.6945 149.653 48.0966 136.16C48.0541 136.139 48.0076 136.128 47.961 136.129C47.9145 136.129 47.8693 136.141 47.829 136.163ZM47.3288 158.75C47.2821 158.709 47.224 158.683 47.1621 158.675C47.1002 158.667 47.0373 158.678 46.9816 158.706C43.475 160.479 39.9993 162.269 36.5543 164.074C36.0637 164.331 35.6368 164.693 35.2736 165.16C34.6747 165.928 35.0411 166.508 35.7388 166.97C36.5225 167.489 37.5865 168.085 38.485 168.531C60.2506 179.397 75.3324 186.926 83.7303 191.119C89.6198 194.06 93.8018 196.13 96.2761 197.328C97.5653 197.952 98.6145 198.397 99.4237 198.663C100.486 199.013 101.593 199.256 102.747 199.392C106.229 199.806 109.434 198.513 112.419 197C128.83 188.676 147.088 179.51 167.193 169.503C169.232 168.487 170.667 167.748 171.497 167.285C171.903 167.058 172.268 166.703 172.593 166.221C172.623 166.176 172.642 166.124 172.649 166.07C172.655 166.016 172.648 165.962 172.628 165.912C172.382 165.262 172.043 164.814 171.612 164.568C168.997 163.075 165.272 161.127 160.436 158.725C160.373 158.694 160.305 158.678 160.235 158.678C160.165 158.678 160.097 158.694 160.034 158.725C148.119 164.693 137.864 169.789 129.269 174.014C120.125 178.508 114.858 181.092 113.467 181.765C111.713 182.617 110.338 183.195 109.344 183.501C107.552 184.049 106.093 184.351 104.967 184.406C101.972 184.55 98.9554 183.964 95.9161 182.647C93.9451 181.794 92.8577 181.317 92.6538 181.217C67.5388 168.911 52.611 161.555 47.8704 159.149C47.7048 159.064 47.5242 158.931 47.3288 158.75Z" fill="#121212"/>
<path d="M132.298 71.4037C132.495 66.8826 129.328 63.0722 125.223 62.893C121.119 62.7138 117.631 66.2336 117.434 70.7547C117.237 75.2758 120.404 79.0862 124.508 79.2654C128.613 79.4446 132.1 75.9248 132.298 71.4037Z" fill="#121212"/>
<path d="M94.1989 71.0885C94.191 66.5508 90.8441 62.8781 86.7233 62.8852C82.6026 62.8924 79.2685 66.5768 79.2765 71.1145C79.2844 75.6523 82.6313 79.325 86.752 79.3178C90.8728 79.3106 94.2068 75.6262 94.1989 71.0885Z" fill="#121212"/>
<path d="M93.6064 87.7157C93.9919 87.8017 94.8202 88.423 95.2216 88.7702C98.2885 91.4315 101.949 92.8109 106.203 92.9086C107.127 92.9309 107.869 92.7493 108.905 92.6442C111.326 92.3957 113.68 91.457 115.968 89.8279C117.161 88.9763 117.944 88.3709 118.316 88.012C118.41 87.9221 118.525 87.8565 118.65 87.8209C119.691 87.5299 120.541 87.5925 121.199 88.0088C123.289 89.3373 123.012 91.9147 121.737 93.7083C119.877 96.3334 117.029 98.0665 114.056 99.1529C113.118 99.4948 111.873 99.806 110.322 100.086C108.88 100.345 107.605 100.486 106.496 100.507C103.559 100.56 100.669 100.07 97.8276 99.0382C95.7186 98.2715 93.8867 97.1596 92.332 95.7026C90.669 94.1448 88.2414 90.9748 90.2867 88.7639C91.2 87.7763 92.3066 87.4269 93.6064 87.7157Z" fill="#121212"/>
<path d="M255.747 51.44V158H231.123V51.44H255.747ZM268.696 117.68C268.696 109.424 270.232 102.176 273.304 95.936C276.472 89.696 280.744 84.896 286.12 81.536C291.496 78.176 297.496 76.496 304.12 76.496C309.784 76.496 314.728 77.648 318.952 79.952C323.272 82.256 326.584 85.28 328.888 89.024V77.648H353.512V158H328.888V146.624C326.488 150.368 323.128 153.392 318.808 155.696C314.584 158 309.64 159.152 303.976 159.152C297.448 159.152 291.496 157.472 286.12 154.112C280.744 150.656 276.472 145.808 273.304 139.568C270.232 133.232 268.696 125.936 268.696 117.68ZM328.888 117.824C328.888 111.68 327.16 106.832 323.704 103.28C320.344 99.728 316.216 97.952 311.32 97.952C306.424 97.952 302.248 99.728 298.792 103.28C295.432 106.736 293.752 111.536 293.752 117.68C293.752 123.824 295.432 128.72 298.792 132.368C302.248 135.92 306.424 137.696 311.32 137.696C316.216 137.696 320.344 135.92 323.704 132.368C327.16 128.816 328.888 123.968 328.888 117.824ZM453.406 77.648L403.006 196.16H376.51L394.942 155.264L362.254 77.648H389.758L408.334 127.904L426.766 77.648H453.406ZM538.055 116.528C538.055 118.832 537.911 121.232 537.623 123.728H481.895C482.279 128.72 483.863 132.56 486.647 135.248C489.527 137.84 493.031 139.136 497.159 139.136C503.303 139.136 507.575 136.544 509.975 131.36H536.183C534.839 136.64 532.391 141.392 528.839 145.616C525.383 149.84 521.015 153.152 515.735 155.552C510.455 157.952 504.551 159.152 498.023 159.152C490.151 159.152 483.143 157.472 476.999 154.112C470.855 150.752 466.055 145.952 462.599 139.712C459.143 133.472 457.415 126.176 457.415 117.824C457.415 109.472 459.095 102.176 462.455 95.936C465.911 89.696 470.711 84.896 476.855 81.536C482.999 78.176 490.055 76.496 498.023 76.496C505.799 76.496 512.711 78.128 518.759 81.392C524.807 84.656 529.511 89.312 532.871 95.36C536.327 101.408 538.055 108.464 538.055 116.528ZM512.855 110.048C512.855 105.824 511.415 102.464 508.535 99.968C505.655 97.472 502.055 96.224 497.735 96.224C493.607 96.224 490.103 97.424 487.223 99.824C484.439 102.224 482.711 105.632 482.039 110.048H512.855ZM575.669 91.04C578.549 86.624 582.149 83.168 586.469 80.672C590.789 78.08 595.589 76.784 600.869 76.784V102.848H594.101C587.957 102.848 583.349 104.192 580.277 106.88C577.205 109.472 575.669 114.08 575.669 120.704V158H551.045V77.648H575.669V91.04ZM652.959 98.096H639.711V158H615.087V98.096H606.159V77.648H615.087V75.344C615.087 65.456 617.919 57.968 623.583 52.88C629.247 47.696 637.551 45.104 648.495 45.104C650.319 45.104 651.663 45.152 652.527 45.248V66.128C647.823 65.84 644.511 66.512 642.591 68.144C640.671 69.776 639.711 72.704 639.711 76.928V77.648H652.959V98.096ZM676.914 69.296C672.594 69.296 669.042 68.048 666.258 65.552C663.57 62.96 662.226 59.792 662.226 56.048C662.226 52.208 663.57 49.04 666.258 46.544C669.042 43.952 672.594 42.656 676.914 42.656C681.138 42.656 684.594 43.952 687.282 46.544C690.066 49.04 691.458 52.208 691.458 56.048C691.458 59.792 690.066 62.96 687.282 65.552C684.594 68.048 681.138 69.296 676.914 69.296ZM689.154 77.648V158H664.53V77.648H689.154ZM737.526 76.496C743.19 76.496 748.134 77.648 752.358 79.952C756.678 82.256 759.99 85.28 762.294 89.024V77.648H786.918V157.856C786.918 165.248 785.43 171.92 782.454 177.872C779.574 183.92 775.11 188.72 769.062 192.272C763.11 195.824 755.67 197.6 746.742 197.6C734.838 197.6 725.19 194.768 717.798 189.104C710.406 183.536 706.182 175.952 705.126 166.352H729.462C730.23 169.424 732.054 171.824 734.934 173.552C737.814 175.376 741.366 176.288 745.59 176.288C750.678 176.288 754.71 174.8 757.686 171.824C760.758 168.944 762.294 164.288 762.294 157.856V146.48C759.894 150.224 756.582 153.296 752.358 155.696C748.134 158 743.19 159.152 737.526 159.152C730.902 159.152 724.902 157.472 719.526 154.112C714.15 150.656 709.878 145.808 706.71 139.568C703.638 133.232 702.102 125.936 702.102 117.68C702.102 109.424 703.638 102.176 706.71 95.936C709.878 89.696 714.15 84.896 719.526 81.536C724.902 78.176 730.902 76.496 737.526 76.496ZM762.294 117.824C762.294 111.68 760.566 106.832 757.11 103.28C753.75 99.728 749.622 97.952 744.726 97.952C739.83 97.952 735.654 99.728 732.198 103.28C728.838 106.736 727.158 111.536 727.158 117.68C727.158 123.824 728.838 128.72 732.198 132.368C735.654 135.92 739.83 137.696 744.726 137.696C749.622 137.696 753.75 135.92 757.11 132.368C760.566 128.816 762.294 123.968 762.294 117.824Z" fill="#121212"/>
</svg>
